 <svg  version="1.0" xmlns="http://www.w3.org/2000/svg"  width="144.000000pt" height="144.000000pt" viewBox="0 0 144.000000 144.000000"  preserveAspectRatio="xMidYMid meet">  <g transform="translate(0.000000,144.000000) scale(0.100000,-0.100000)" fill="#52057f" stroke="none"> <path d="M593 1333 c-34 -7 -83 -60 -83 -91 0 -49 -9 -53 -131 -56 -126 -3 -163 -15 -185 -57 -33 -65 -8 -137 56 -163 22 -9 40 -19 40 -23 0 -5 1 -172 3 -373 2 -406 3 -413 69 -441 48 -20 708 -20 756 0 66 28 67 35 69 441 2 201 3 368 3 373 0 4 18 14 40 23 63 25 88 94 58 159 -21 47 -61 60 -187 62 -122 2 -131 5 -131 55 0 37 -49 84 -97 91 -41 7 -244 7 -280 0z m313 -67 c7 -6 14 -20 18 -31 12 -43 -1 -47 -184 -47 -183 0 -196 4 -184 47 15 49 27 52 214 46 76 -2 130 -8 136 -15z m330 -147 c17 -14 18 -81 2 -97 -17 -17 -979 -17 -996 0 -16 16 -15 83 1 96 19 16 47 17 526 15 322 -2 458 -6 467 -14z m-109 -172 c2 -2 4 -172 4 -376 0 -275 -3 -376 -12 -387 -16 -20 -741 -21 -757 -1 -15 17 -18 757 -4 766 11 6 762 4 769 -2z"/> <path d="M480 810 c-7 -13 -10 -105 -10 -254 1 -187 4 -238 16 -253 14 -17 14 -17 29 1 12 16 15 61 15 254 0 222 -6 272 -30 272 -5 0 -14 -9 -20 -20z"/> <path d="M721 812 c-5 -9 -10 -123 -10 -252 -2 -198 1 -238 14 -255 15 -20 15 -20 30 -1 12 16 15 61 15 254 0 222 -6 272 -30 272 -5 0 -14 -8 -19 -18z"/> <path d="M960 811 c-6 -12 -10 -111 -10 -253 0 -193 3 -238 15 -254 15 -19 15 -19 30 0 12 16 15 61 15 254 0 222 -6 272 -30 272 -5 0 -14 -9 -20 -19z"/> </g> </svg> 