 <svg  version="1.0" xmlns="http://www.w3.org/2000/svg"  width="300.000000pt" height="300.000000pt" viewBox="0 0 300.000000 300.000000"  preserveAspectRatio="xMidYMid meet">  <g transform="translate(0.000000,300.000000) scale(0.100000,-0.100000)" fill="#472216" stroke="none"> <path d="M63 2984 c-51 -25 -77 -98 -52 -147 6 -12 306 -318 667 -679 l657 -658 -662 -662 c-363 -365 -664 -674 -668 -686 -25 -84 63 -172 147 -147 12 4 321 305 686 668 l662 662 663 -662 c364 -363 673 -664 685 -668 84 -25 172 63 147 147 -4 12 -305 321 -668 685 l-662 663 662 663 c363 364 664 673 668 685 25 84 -63 172 -147 147 -12 -4 -321 -305 -686 -668 l-662 -662 -658 657 c-361 361 -667 661 -679 667 -30 15 -62 13 -100 -5z"/> </g> </svg> 