 <svg  version="1.0" xmlns="http://www.w3.org/2000/svg"  width="300.000000pt" height="300.000000pt" viewBox="0 0 300.000000 300.000000"  preserveAspectRatio="xMidYMid meet">  <g transform="translate(0.000000,300.000000) scale(0.100000,-0.100000)" fill="#562e19" stroke="none"> <path d="M370 2250 l0 -90 1130 0 1130 0 0 90 0 90 -1130 0 -1130 0 0 -90z"/> <path d="M370 1500 l0 -90 1130 0 1130 0 0 90 0 90 -1130 0 -1130 0 0 -90z"/> <path d="M370 750 l0 -90 1130 0 1130 0 0 90 0 90 -1130 0 -1130 0 0 -90z"/> </g> </svg> 