<svg width="17" height="24" viewBox="0 0 17 24" fill="none" xmlns="http://www.w3.org/2000/svg">
<path d="M2.125 8H14.875C15.0629 8 15.243 7.89464 15.3759 7.70711C15.5087 7.51957 15.5833 7.26522 15.5833 7C15.5833 6.73478 15.5087 6.48043 15.3759 6.29289C15.243 6.10536 15.0629 6 14.875 6H2.125C1.93714 6 1.75697 6.10536 1.62413 6.29289C1.49129 6.48043 1.41666 6.73478 1.41666 7C1.41666 7.26522 1.49129 7.51957 1.62413 7.70711C1.75697 7.89464 1.93714 8 2.125 8V8ZM14.875 16H2.125C1.93714 16 1.75697 16.1054 1.62413 16.2929C1.49129 16.4804 1.41666 16.7348 1.41666 17C1.41666 17.2652 1.49129 17.5196 1.62413 17.7071C1.75697 17.8946 1.93714 18 2.125 18H14.875C15.0629 18 15.243 17.8946 15.3759 17.7071C15.5087 17.5196 15.5833 17.2652 15.5833 17C15.5833 16.7348 15.5087 16.4804 15.3759 16.2929C15.243 16.1054 15.0629 16 14.875 16ZM14.875 11H2.125C1.93714 11 1.75697 11.1054 1.62413 11.2929C1.49129 11.4804 1.41666 11.7348 1.41666 12C1.41666 12.2652 1.49129 12.5196 1.62413 12.7071C1.75697 12.8946 1.93714 13 2.125 13H14.875C15.0629 13 15.243 12.8946 15.3759 12.7071C15.5087 12.5196 15.5833 12.2652 15.5833 12C15.5833 11.7348 15.5087 11.4804 15.3759 11.2929C15.243 11.1054 15.0629 11 14.875 11Z" fill="white"/>
</svg>
